<?xml version="1.0" standalone="no"?><!DOCTYPE svg PUBLIC "-//W3C//DTD SVG 1.1//EN" "http://www.w3.org/Graphics/SVG/1.1/DTD/svg11.dtd"><svg t="1574346709175" class="icon" viewBox="0 0 1024 1024" version="1.1" xmlns="http://www.w3.org/2000/svg" p-id="3700" xmlns:xlink="http://www.w3.org/1999/xlink" width="200" height="200"><defs><style type="text/css"></style></defs><path d="M511.9936 1023.9872c-2.956763 0-5.926326-0.511994-8.75509-1.535981C52.172148 858.40847 0 521.068687 0 281.59648a25.59968 25.59968 0 0 1 25.59968-25.59968C303.279409 255.9968 489.670679 12.684641 491.526656 10.214272c9.676679-12.83824 31.257209-12.83824 40.933888 0C534.303721 12.684641 720.707791 255.9968 998.38752 255.9968a25.59968 25.59968 0 0 1 25.59968 25.59968c0 130.609567-16.498994 235.350658-51.941751 329.63428a25.59968 25.59968 0 1 1-47.922601-17.996575c30.950013-82.354171 46.476219-173.962625 48.447395-286.652417C734.954013 295.22831 568.133698 129.995175 511.9936 65.829577c-56.140098 64.178398-222.973213 229.398733-460.589443 240.764991C55.21851 543.007612 117.822527 824.0025 511.9936 971.098261c55.589705-20.77414 106.622667-45.081036 151.780503-72.331896a25.61248 25.61248 0 0 1 26.444469 43.852252c-50.36737 30.36122-107.377858 57.228085-169.457082 79.819803A25.57408 25.57408 0 0 1 511.9936 1023.9872z" fill="#333333" p-id="3701"></path><path d="M754.640167 1023.9872a25.59968 25.59968 0 0 1-18.098974-7.500706L559.097011 839.042312a25.59968 25.59968 0 1 1 36.197948-36.197948l159.345208 159.345209 188.938438-188.938439c18.854164-18.854164 29.222035-43.941851 29.222035-70.629517s-10.38067-51.775353-29.222035-70.629517a98.814765 98.814765 0 0 0-70.322321-29.158035h-0.473594a98.865964 98.865964 0 0 0-70.450319 29.158035l-29.59323 29.59323a25.59968 25.59968 0 1 1-36.197948-36.197947l29.58043-29.59323a149.57893 149.57893 0 0 1 106.533069-44.159448h0.729591c40.089099 0 77.899826 15.679804 106.40507 44.146648 58.917664 58.917664 58.917664 154.762865 0 213.654929L772.739141 1016.486494a25.59968 25.59968 0 0 1-18.098974 7.500706z" fill="#333333" p-id="3702"></path><path d="M754.640167 1023.9872a25.497281 25.497281 0 0 1-18.098974-7.500706L529.490981 809.474682a149.796528 149.796528 0 0 1-44.146648-106.878664 149.758128 149.758128 0 0 1 44.146648-106.801865 150.090924 150.090924 0 0 1 106.853065-44.236247c40.357896 0 78.309421 15.718204 106.827464 44.236247l29.580431 29.59323a25.59968 25.59968 0 1 1-36.197948 36.197947l-29.58043-29.59323a99.22436 99.22436 0 0 0-70.629517-29.234834 99.339558 99.339558 0 0 0-70.655117 29.234834 98.955563 98.955563 0 0 0-29.145236 70.603918 99.045162 99.045162 0 0 0 29.145236 70.667916l188.951238 188.925639 159.345208-159.345209a25.59968 25.59968 0 1 1 36.197948 36.197948L772.739141 1016.486494a25.497281 25.497281 0 0 1-18.098974 7.500706z" fill="#333333" p-id="3703"></path></svg>