<?xml version="1.0" standalone="no"?><!DOCTYPE svg PUBLIC "-//W3C//DTD SVG 1.1//EN" "http://www.w3.org/Graphics/SVG/1.1/DTD/svg11.dtd"><svg t="1574174379131" class="icon" viewBox="0 0 1024 1024" version="1.1" xmlns="http://www.w3.org/2000/svg" p-id="1217" xmlns:xlink="http://www.w3.org/1999/xlink" width="200" height="200"><defs><style type="text/css"></style></defs><path d="M684.889 534.211h-122.6V412.186h122.6c16.928 0 30.649-11.465 30.649-25.603 0-14.137-13.722-25.6-30.649-25.6h-80.744l50.393-90.827c7.124-12.825 0.443-28.04-14.919-33.99-15.36-5.94-33.582-0.36-40.692 12.465L536.59 360.983h-9.896L464.353 248.63c-7.111-12.827-25.334-18.407-40.691-12.462-15.358 5.945-22.039 21.163-14.924 33.99l50.395 90.825h-80.739c-16.926 0-30.649 11.463-30.649 25.6 0 14.138 13.724 25.603 30.649 25.603H500.99v122.025H378.391c-16.927 0-30.649 11.46-30.649 25.601 0 14.14 13.723 25.6 30.649 25.6H500.99v179.2c0 14.135 13.721 25.6 30.649 25.6s30.65-11.465 30.65-25.6v-179.2h122.6c16.928 0 30.649-11.46 30.649-25.6 0-14.141-13.722-25.601-30.649-25.601z" fill="#231815" p-id="1218"></path><path d="M900.891 805.049c-87.757 102.444-220.58 167.752-369.251 167.752C267.383 972.801 53.164 766.49 53.164 512c0-254.489 214.219-460.8 478.476-460.8 192.494 0 358.432 109.476 434.364 267.3H1024C944.748 131.658 754.158 0 531.64 0 238.022 0 0 229.23 0 512c0 282.771 238.022 512 531.64 512 170.465 0 322.184-77.269 419.47-197.419l-50.219-21.532z" fill="#231815" p-id="1219"></path><path d="M923.467 819.247l12.78 96.48c0.113 0.321 0.177 0.65 0.189 0.981l40.892 30.662-22.224-167.757-173.123 21.272 41.151 30.858-0.193-0.146 100.528-12.35z" fill="#231815" p-id="1220"></path></svg>