<?xml version="1.0" standalone="no"?><!DOCTYPE svg PUBLIC "-//W3C//DTD SVG 1.1//EN" "http://www.w3.org/Graphics/SVG/1.1/DTD/svg11.dtd"><svg t="1574174250068" class="icon" viewBox="0 0 1024 1024" version="1.1" xmlns="http://www.w3.org/2000/svg" p-id="2136" xmlns:xlink="http://www.w3.org/1999/xlink" width="200" height="200"><defs><style type="text/css"></style></defs><path d="M831.34464 205.38368c93.00992 98.16576 135.53664 230.12352 120.3968 364.21632-12.75904 113.03424-74.56768 216.3712-161.18784 288.36864-183.59808 152.61696-460.8512 120.09984-615.65952-55.76192C38.88128 647.7056 35.62496 414.49984 153.93792 249.6768c131.89632-183.74656 390.61504-230.85056 583.65952-118.66112 28.60544 16.62464 54.36416-27.63264 25.84064-44.2112C542.07488-41.84064 260.87936 19.46112 109.72672 223.83616c-140.20096 189.57312-116.15232 459.25888 42.39872 629.42208 160.21504 171.94496 429.34784 201.3952 626.21696 76.416 208.61952-132.43904 282.14272-403.5584 181.41184-626.432-22.4256-49.60768-54.86592-94.64832-92.2112-134.06208-22.74304-24.0128-58.89024 12.25728-36.1984 36.20352z" p-id="2137"></path><path d="M769.93536 713.27232c17.03936 1.52576 26.3424 10.06592 27.89888 25.5744-1.5616 13.952-10.85952 21.68832-27.89888 23.24992H495.58016c-62.00832-3.1232-115.48672-21.72416-160.42496-55.79776-3.1232 1.5616-7.77728 4.64896-13.952 9.29792-23.24992 18.60096-44.17536 32.54784-62.77632 41.85088-13.952 4.64896-24.04864 0.76288-30.22336-11.62752-6.21056-17.0752-3.1232-28.6976 9.29792-34.87744 46.49984-17.03936 70.51264-41.05216 72.07424-72.07424v-125.51168c0-17.03936-6.97344-25.5744-20.92544-25.5744h-46.49984c-12.42624 0-19.39968-7.74144-20.92544-23.24992 1.52576-15.47264 8.4992-23.24992 20.92544-23.24992h74.39872c26.3424 0 39.5264 12.42624 39.5264 37.20192V622.592c4.64896 57.35936 48.82432 87.552 132.52608 90.6752h281.33376zM370.03264 352.93696c9.29792 13.952 7.74144 25.5744-4.64896 34.87744-12.42624 7.77728-24.04864 4.64896-34.87744-9.29792a1158.62528 1158.62528 0 0 0-69.74976-81.37728c-10.85952-12.3904-11.62752-24.0128-2.32448-34.87744 12.3904-7.73632 24.77568-6.17472 37.20192 4.64896 21.68832 20.15744 46.49984 48.82432 74.39872 86.02624z m369.67936 83.69664c-1.5616 23.24992-14.75072 35.67616-39.5264 37.20192H463.03232v165.03296c0 4.64896 2.32448 6.21056 6.97344 4.64896 27.89888-15.47264 51.15392-30.99136 69.75488-46.49984 15.47264-10.82368 27.89888-10.06592 37.20192 2.32448 9.29792 12.42624 6.97344 24.81152-6.97344 37.20192a494.976 494.976 0 0 1-99.97824 58.12736c-37.20192 13.952-55.79776 3.1232-55.79776-32.54784V285.51168c-3.1232-29.42464 11.62752-43.37664 44.17536-41.85088h237.15328c30.99136-3.08736 45.70112 10.10176 44.17536 39.5264v153.4464zM460.70784 334.336h232.50432v-25.5744c1.52576-15.47264-3.88608-22.4512-16.27648-20.92544H479.3088c-12.42624 0-18.60096 6.97344-18.60096 20.92544V334.336z m216.22784 95.32416c10.82368 0 16.27648-5.41696 16.27648-16.27648v-34.87744H460.70784v51.1488h216.22784z m-65.1008 104.59136c10.82368 7.77216 18.60096 13.94688 23.24992 18.59584 21.68832-13.952 44.93824-33.28512 69.74976-58.0864 10.82368-10.82368 22.4512-11.62752 34.87744-2.32448 10.82368 12.42624 10.82368 24.8064 0 37.17632-13.952 13.93664-36.43392 32.53248-67.42528 55.78752 27.89888 24.81152 51.1488 48.82432 69.74976 72.07424 10.82368 15.50848 10.82368 27.89888 0 37.20192-12.42624 7.77728-24.81152 5.44768-37.20192-6.97344-52.7104-60.45184-113.16224-112.36352-181.3504-155.76576-10.86464-9.28256-11.62752-20.096-2.32448-32.52224 9.29792-12.3904 20.12672-14.71488 32.54784-6.97344 13.952 9.2928 33.31584 23.2448 58.12736 41.80992z" p-id="2138"></path></svg>