<?xml version="1.0" standalone="no"?><!DOCTYPE svg PUBLIC "-//W3C//DTD SVG 1.1//EN" "http://www.w3.org/Graphics/SVG/1.1/DTD/svg11.dtd"><svg t="1574346745239" class="icon" viewBox="0 0 1024 1024" version="1.1" xmlns="http://www.w3.org/2000/svg" p-id="4054" xmlns:xlink="http://www.w3.org/1999/xlink" width="200" height="200"><defs><style type="text/css"></style></defs><path d="M512.908696 959.38333c-247.360737 0-447.886797-200.528106-447.886797-447.888843 0-247.361761 200.526059-447.886797 447.886797-447.886797 247.361761 0 447.886797 200.525036 447.886797 447.886797C960.796516 758.855224 760.27148 959.38333 512.908696 959.38333zM691.714058 655.448086c-1.399883-7.515161-6.415107-9.492188-8.499581-9.995655-3.966335-1.603521-28.314883-18.099217-46.100968-30.178323-35.688827-24.217564-46.771233-31.44006-51.538817-32.584116l-3.075035-0.335644c-5.89015 0-16.70752 3.229554-51.814086 26.949792-9.039887-5.247514-40.285518-41.937135-59.486836-67.408249-18.151405-30.870078-37.600363-69.362764-39.23356-80.456427 35.792181-24.484647 43.723827-33.860179 44.773739-40.923038 0.713244-4.789073-1.808182-17.787108-10.818393-59.979046-4.505617-21.183462-10.701736-50.190099-10.628058-54.921867 0.422625-2.666736-0.540306-5.735631-2.741437-8.251941-8.354272-9.534144-35.252899-9.81146-38.270629-9.81146-8.674567 0-24.843828 1.079588-35.544541 8.347109-3.602038 2.440585-87.170339 61.500703-17.043165 214.177987 5.27719 15.614629 19.579941 40.787962 43.343157 76.236312l1.792832 2.384303c22.75833 34.107819 40.633443 56.756655 53.624315 68.070328 60.782342 64.945151 113.663736 78.669734 147.225109 78.669734 32.627095 0 52.821019-12.588713 56.553017-15.110139C683.096796 707.511859 694.222181 668.963914 691.714058 655.448086zM654.857639 706.906062c-1.822508 1.255597-18.866696 12.244882-47.165206 12.244882-30.266327 0-78.363765-12.836353-135.661749-74.011644-12.393261-10.810207-29.859052-33.102932-52.544727-66.867944l-1.792832-2.346441c-21.563108-32.461319-35.558867-57.037041-40.619116-71.796186-64.804958-141.15281 7.931646-192.661951 11.05273-194.781218 5.073552-3.417843 14.839986-5.474688 26.183336-5.474688 11.561313 0 20.84884 2.056845 24.596188 3.666506 0.523933 7.062859 3.585665 22.146393 10.874675 56.386218 4.491291 21.096481 10.673084 49.985438 10.585079 54.686507-0.525979 0.452301-5.699816 7.661494-40.121789 31.04711-5.656837 3.839445-16.052604 10.904351 37.20639 101.225449 21.50478 28.582989 58.975183 75.207889 74.283844 75.230402l2.551102 0 3.529383-1.830695c35.135218-23.902386 43.459814-25.52842 44.773739-25.616424 3.060709 1.473561 27.379581 17.99177 45.164642 30.054503 28.751834 19.4991 41.523719 27.964912 47.90915 31.143301C676.112732 669.122527 666.973584 698.682773 654.857639 706.906062z" p-id="4055"></path></svg>